<svg width="20" height="20" viewBox="0 0 20 20" fill="none" xmlns="http://www.w3.org/2000/svg">
<g clip-path="url(#clip0_335_1995)">
<path d="M10.0439 12.3571L11.2224 13.5356L14.758 10.0001L11.2224 6.46454L10.0439 7.64305L11.5676 9.16674H5.28666V10.8334H11.5676L10.0439 12.3571Z" fill="#232323"/>
<path fill-rule="evenodd" clip-rule="evenodd" d="M16.4825 16.4819C20.0623 12.902 20.0623 7.09803 16.4825 3.51823C12.9027 -0.0615774 7.09865 -0.0615774 3.51884 3.51823C-0.0609671 7.09803 -0.0609671 12.902 3.51884 16.4819C7.09865 20.0617 12.9027 20.0617 16.4825 16.4819ZM15.304 15.3033C18.2329 12.3744 18.2329 7.62567 15.304 4.69674C12.375 1.76781 7.62628 1.76781 4.69735 4.69674C1.76842 7.62567 1.76842 12.3744 4.69735 15.3033C7.62628 18.2323 12.375 18.2323 15.304 15.3033Z" fill="#232323"/>
</g>
<defs>
<clipPath id="clip0_335_1995">
<rect width="20" height="20" fill="white"/>
</clipPath>
</defs>
</svg>
