<svg width="21" height="20" viewBox="0 0 21 20" fill="none" xmlns="http://www.w3.org/2000/svg">
<g clip-path="url(#clip0_296_1152)">
<path d="M16.4889 1C17.373 1 18.2208 1.33363 18.846 1.9275C19.4711 2.52136 19.8223 3.32681 19.8223 4.16667V16.8333C19.8223 17.6732 19.4711 18.4786 18.846 19.0725C18.2208 19.6664 17.373 20 16.4889 20H3.1556C2.27154 20 1.4237 19.6664 0.798577 19.0725C0.173455 18.4786 -0.177734 17.6732 -0.177734 16.8333V4.16667C-0.177734 3.32681 0.173455 2.52136 0.798577 1.9275C1.4237 1.33363 2.27154 1 3.1556 1H16.4889ZM16.4889 3.11111H3.1556C2.86091 3.11111 2.5783 3.22232 2.36993 3.42028C2.16155 3.61823 2.04449 3.88672 2.04449 4.16667V16.8333C2.04449 17.1133 2.16155 17.3818 2.36993 17.5797C2.5783 17.7777 2.86091 17.8889 3.1556 17.8889H16.4889C16.7836 17.8889 17.0662 17.7777 17.2746 17.5797C17.483 17.3818 17.6 17.1133 17.6 16.8333V4.16667C17.6 3.88672 17.483 3.61823 17.2746 3.42028C17.0662 3.22232 16.7836 3.11111 16.4889 3.11111ZM5.37782 8.38889C5.64997 8.38892 5.91264 8.48384 6.11601 8.65564C6.31939 8.82745 6.44931 9.06418 6.48115 9.32094L6.48893 9.44444V14.7222C6.48862 14.9913 6.38018 15.25 6.18577 15.4457C5.99136 15.6413 5.72565 15.759 5.44294 15.7748C5.16023 15.7906 4.88184 15.7032 4.66467 15.5305C4.4475 15.3578 4.30794 15.1129 4.27449 14.8457L4.26671 14.7222V9.44444C4.26671 9.16449 4.38377 8.89601 4.59215 8.69805C4.80052 8.5001 5.08314 8.38889 5.37782 8.38889ZM8.71115 7.33333C8.97137 7.3333 9.22335 7.42002 9.42315 7.57839C9.62295 7.73676 9.75791 7.95673 9.80449 8.19994C10.0283 8.07716 10.2594 7.96685 10.4967 7.86956C11.2378 7.56872 12.3478 7.403 13.35 7.70172C13.8756 7.86006 14.4034 8.15561 14.7945 8.65911C15.1445 9.10772 15.3334 9.65345 15.3712 10.2667L15.3778 10.5V14.7222C15.3775 14.9913 15.2691 15.25 15.0747 15.4457C14.8802 15.6413 14.6145 15.759 14.3318 15.7748C14.0491 15.7906 13.7707 15.7032 13.5536 15.5305C13.3364 15.3578 13.1968 15.1129 13.1634 14.8457L13.1556 14.7222V10.5C13.1556 10.1517 13.0667 9.98911 13.0089 9.91417C12.9259 9.81628 12.8117 9.74664 12.6834 9.71572C12.2967 9.59961 11.74 9.66083 11.37 9.81072C10.8145 10.0366 10.3056 10.3913 9.95893 10.7196L9.82227 10.8589V14.7222C9.82195 14.9913 9.71351 15.25 9.5191 15.4457C9.32469 15.6413 9.05898 15.759 8.77627 15.7748C8.49356 15.7906 8.21518 15.7032 7.99801 15.5305C7.78084 15.3578 7.64127 15.1129 7.60782 14.8457L7.60004 14.7222V8.38889C7.60004 8.10894 7.71711 7.84045 7.92548 7.6425C8.13385 7.44454 8.41647 7.33333 8.71115 7.33333ZM5.37782 5.22222C5.67251 5.22222 5.95512 5.33343 6.1635 5.53139C6.37187 5.72934 6.48893 5.99783 6.48893 6.27778C6.48893 6.55773 6.37187 6.82621 6.1635 7.02417C5.95512 7.22212 5.67251 7.33333 5.37782 7.33333C5.08314 7.33333 4.80052 7.22212 4.59215 7.02417C4.38377 6.82621 4.26671 6.55773 4.26671 6.27778C4.26671 5.99783 4.38377 5.72934 4.59215 5.53139C4.80052 5.33343 5.08314 5.22222 5.37782 5.22222Z" fill="white"/>
</g>
<defs>
<clipPath id="clip0_296_1152">
<rect width="21" height="20" fill="white"/>
</clipPath>
</defs>
</svg>
