<svg width="16" height="12" viewBox="0 0 16 12" fill="none" xmlns="http://www.w3.org/2000/svg">
<path d="M15.8132 1.09316L5.57316 11.3332C5.51372 11.3927 5.44313 11.4399 5.36544 11.4721C5.28774 11.5043 5.20446 11.5209 5.12036 11.5209C5.03625 11.5209 4.95297 11.5043 4.87527 11.4721C4.79758 11.4399 4.72699 11.3927 4.66756 11.3332L0.187556 6.85316C0.0674658 6.73307 0 6.57019 0 6.40036C0 6.23052 0.0674658 6.06765 0.187556 5.94756C0.307646 5.82747 0.470523 5.76 0.640356 5.76C0.810189 5.76 0.973066 5.82747 1.09316 5.94756L5.12036 9.97556L14.9076 0.187556C15.0276 0.0674655 15.1905 -1.26535e-09 15.3604 0C15.5302 1.26535e-09 15.6931 0.0674655 15.8132 0.187556C15.9332 0.307646 16.0007 0.470523 16.0007 0.640356C16.0007 0.810189 15.9332 0.973066 15.8132 1.09316Z" fill="black"/>
</svg>
