<svg width="20" height="20" viewBox="0 0 20 20" fill="none" xmlns="http://www.w3.org/2000/svg">
<path d="M9.10264 3.48313C9.46948 2.73997 10.5292 2.73997 10.8961 3.48313L12.3419 6.41226C12.4874 6.70711 12.7686 6.91157 13.094 6.95912L16.3289 7.43195C17.1488 7.5518 17.4756 8.55964 16.882 9.1378L14.5428 11.4162C14.3069 11.6459 14.1993 11.9771 14.2549 12.3016L14.8068 15.5191C14.9469 16.3361 14.0893 16.9591 13.3557 16.5733L10.4648 15.0529C10.1734 14.8997 9.82528 14.8997 9.5339 15.0529L6.64298 16.5733C5.90935 16.9591 5.0518 16.3361 5.19192 15.5191L5.74377 12.3016C5.79943 11.9771 5.69177 11.6459 5.45589 11.4162L3.1167 9.1378C2.5231 8.55964 2.84988 7.5518 3.6698 7.43195L6.90472 6.95912C7.23007 6.91157 7.51125 6.70711 7.65679 6.41226L9.10264 3.48313Z" fill="#FFB800"/>
</svg>
