<svg width="24" height="24" viewBox="0 0 24 24" fill="none" xmlns="http://www.w3.org/2000/svg">
<path fill-rule="evenodd" clip-rule="evenodd" d="M13.6352 20.7275V12.7662H16.3585L16.7671 9.66268H13.6352V7.6815C13.6352 6.78323 13.8885 6.17107 15.2032 6.17107L16.8774 6.1704V3.39446C16.5878 3.35756 15.594 3.27295 14.4373 3.27295C12.0219 3.27295 10.3683 4.71903 10.3683 7.37413V9.66268H7.63672V12.7662H10.3683V20.7275H13.6352Z" fill="white"/>
<mask id="mask0_335_1982" style="mask-type:luminance" maskUnits="userSpaceOnUse" x="7" y="3" width="10" height="18">
<path fill-rule="evenodd" clip-rule="evenodd" d="M13.6352 20.7275V12.7662H16.3585L16.7671 9.66268H13.6352V7.6815C13.6352 6.78323 13.8885 6.17107 15.2032 6.17107L16.8774 6.1704V3.39446C16.5878 3.35756 15.594 3.27295 14.4373 3.27295C12.0219 3.27295 10.3683 4.71903 10.3683 7.37413V9.66268H7.63672V12.7662H10.3683V20.7275H13.6352Z" fill="white"/>
</mask>
<g mask="url(#mask0_335_1982)">
</g>
</svg>
